<svg viewBox="0 0 660 300" xmlns="http://www.w3.org/2000/svg" role="img" aria-label="力质量分:接触法向力与专家带" style="width:100%;height:auto;background:#10141c;border-radius:6px">
<rect x="58" y="111.7" width="580" height="100.9" fill="#38e1d4" opacity="0.10"/>
<line x1="58" y1="254.0" x2="638" y2="254.0" stroke="#1d2530" stroke-width="1"/><text x="50" y="257.0" text-anchor="end" font-family="ui-monospace,'JetBrains Mono',Consolas,monospace" font-size="10" fill="#5d6878">0</text><line x1="58" y1="184.9" x2="638" y2="184.9" stroke="#1d2530" stroke-width="1"/><text x="50" y="187.9" text-anchor="end" font-family="ui-monospace,'JetBrains Mono',Consolas,monospace" font-size="10" fill="#5d6878">5</text><line x1="58" y1="115.8" x2="638" y2="115.8" stroke="#1d2530" stroke-width="1"/><text x="50" y="118.8" text-anchor="end" font-family="ui-monospace,'JetBrains Mono',Consolas,monospace" font-size="10" fill="#5d6878">10</text><line x1="58" y1="46.7" x2="638" y2="46.7" stroke="#1d2530" stroke-width="1"/><text x="50" y="49.7" text-anchor="end" font-family="ui-monospace,'JetBrains Mono',Consolas,monospace" font-size="10" fill="#5d6878">15</text>
<line x1="58" y1="111.7" x2="638" y2="111.7" stroke="#1d7d77" stroke-width="1.1" stroke-dasharray="4 3"/><text x="60" y="106.7" font-family="ui-monospace,'JetBrains Mono',Consolas,monospace" font-size="9.5" fill="#1d7d77">P90 · 10.3 N</text>
<line x1="58" y1="212.5" x2="638" y2="212.5" stroke="#1d7d77" stroke-width="1.1" stroke-dasharray="4 3"/><text x="60" y="225.5" font-family="ui-monospace,'JetBrains Mono',Consolas,monospace" font-size="9.5" fill="#1d7d77">P10 · 3.0 N</text>
<polyline points="58.0,248.5 65.9,235.4 73.9,222.3 81.8,209.2 89.8,196.2 97.7,183.1 105.7,170.0 113.6,156.9 121.6,143.8 129.5,74.0 137.5,69.8 145.4,67.3 153.3,66.9 161.3,68.3 169.2,71.1 177.2,74.5 185.1,77.7 193.1,80.1 201.0,81.3 209.0,81.6 216.9,81.4 224.8,81.4 232.8,82.2 240.7,84.1 248.7,87.1 256.6,90.9 264.6,94.8 272.5,97.8 280.5,99.2 288.4,98.6 296.4,96.0 304.3,91.6 312.2,86.4 320.2,81.2 328.1,76.9 336.1,74.0 344.0,72.8 352.0,73.1 359.9,74.2 367.9,75.5 375.8,76.3 383.8,76.3 391.7,75.4 399.6,74.1 407.6,72.9 415.5,72.5 423.5,73.6 431.4,76.4 439.4,80.7 447.3,85.9 455.3,91.2 463.2,95.7 471.2,98.4 479.1,99.2 487.0,97.9 495.0,95.0 502.9,91.2 510.9,87.5 518.8,84.4 526.8,82.5 534.7,81.7 542.7,81.8 550.6,81.9 558.5,81.6 566.5,80.4 574.4,78.0 582.4,74.8 590.3,71.3 598.3,68.4 606.2,66.8 614.2,67.1 622.1,69.4 630.1,73.6 638.0,78.8" fill="none" stroke="#f08c8c" stroke-width="2" opacity="0.92"/>
<polyline points="58.0,248.5 65.9,238.0 73.9,227.5 81.8,217.0 89.8,206.5 97.7,196.0 105.7,185.5 113.6,175.0 121.6,164.5 129.5,158.0 137.5,155.8 145.4,154.6 153.3,154.5 161.3,155.1 169.2,156.0 177.2,156.8 185.1,157.3 193.1,157.2 201.0,156.8 209.0,156.2 216.9,155.7 224.8,155.9 232.8,156.9 240.7,159.0 248.7,162.0 256.6,165.8 264.6,169.8 272.5,173.5 280.5,176.5 288.4,178.2 296.4,178.7 304.3,177.8 312.2,175.8 320.2,173.3 328.1,170.6 336.1,168.2 344.0,166.4 352.0,165.2 359.9,164.7 367.9,164.4 375.8,164.0 383.8,163.3 391.7,161.9 399.6,159.9 407.6,157.3 415.5,154.5 423.5,152.0 431.4,150.2 439.4,149.5 447.3,150.2 455.3,152.3 463.2,155.4 471.2,159.2 479.1,163.2 487.0,166.8 495.0,169.6 502.9,171.4 510.9,172.2 518.8,172.2 526.8,171.7 534.7,171.2 542.7,170.9 550.6,171.2 558.5,171.8 566.5,172.8 574.4,173.8 582.4,174.2 590.3,173.9 598.3,172.5 606.2,170.0 614.2,166.5 622.1,162.4 630.1,158.3 638.0,154.7" fill="none" stroke="#38e1d4" stroke-width="2.6"/>
<text x="632" y="106.7" text-anchor="end" font-family="ui-monospace,'JetBrains Mono',Consolas,monospace" font-size="10" fill="#1d7d77">专家带 P10–P90 · 带内时间占比计分</text>
<text x="300" y="63.3" font-family="ui-monospace,'JetBrains Mono',Consolas,monospace" font-size="10.5" fill="#f08c8c">超压硬怼 → 峰值惩罚 + 超压占比扣分</text>
<text x="120" y="144.8" font-family="ui-monospace,'JetBrains Mono',Consolas,monospace" font-size="10.5" fill="#38e1d4">恒压贴带 → 力质量分高</text>
<text x="60" y="276" font-family="ui-monospace,'JetBrains Mono',Consolas,monospace" font-size="10.5" fill="#5d6878">接触阶段 →</text>
<text x="14" y="150" font-family="ui-monospace,'JetBrains Mono',Consolas,monospace" font-size="10.5" fill="#5d6878" transform="rotate(-90 14 150)" text-anchor="middle">接触法向力 (N)</text>
<g font-family="ui-monospace,'JetBrains Mono',Consolas,monospace" font-size="11">
<rect x="404" y="287" width="16" height="3" fill="#38e1d4"/><text x="424" y="291" fill="#8a98ac">会用力 · 恒压贴带(带内)</text>
<rect x="566" y="287" width="16" height="3" fill="#f08c8c"/><text x="586" y="291" fill="#8a98ac">超压硬怼(带外)</text>
</g>
</svg>