<svg viewBox="0 0 660 300" xmlns="http://www.w3.org/2000/svg" role="img" aria-label="力质量折线图" style="width:100%;height:auto;background:#10141c;border-radius:6px">
<rect x="58" y="147.3" width="580" height="75.7" fill="#38e1d4" opacity="0.10"/>
<line x1="58" y1="147.3" x2="638" y2="147.3" stroke="#1d7d77" stroke-width="1" stroke-dasharray="4 3"/>
<line x1="58" y1="222.9" x2="638" y2="222.9" stroke="#1d7d77" stroke-width="1" stroke-dasharray="4 3"/>
<line x1="58" y1="254.0" x2="638" y2="254.0" stroke="#1d2530" stroke-width="1"/><text x="50" y="257.0" text-anchor="end" font-family="ui-monospace,'JetBrains Mono',Consolas,monospace" font-size="10" fill="#5d6878">0</text><line x1="58" y1="202.2" x2="638" y2="202.2" stroke="#1d2530" stroke-width="1"/><text x="50" y="205.2" text-anchor="end" font-family="ui-monospace,'JetBrains Mono',Consolas,monospace" font-size="10" fill="#5d6878">5</text><line x1="58" y1="150.4" x2="638" y2="150.4" stroke="#1d2530" stroke-width="1"/><text x="50" y="153.4" text-anchor="end" font-family="ui-monospace,'JetBrains Mono',Consolas,monospace" font-size="10" fill="#5d6878">10</text><line x1="58" y1="98.5" x2="638" y2="98.5" stroke="#1d2530" stroke-width="1"/><text x="50" y="101.5" text-anchor="end" font-family="ui-monospace,'JetBrains Mono',Consolas,monospace" font-size="10" fill="#5d6878">15</text><line x1="58" y1="46.7" x2="638" y2="46.7" stroke="#1d2530" stroke-width="1"/><text x="50" y="49.7" text-anchor="end" font-family="ui-monospace,'JetBrains Mono',Consolas,monospace" font-size="10" fill="#5d6878">20</text>
<polyline points="58.0,62.7 62.5,52.5 67.0,44.6 71.5,39.4 76.0,37.4 80.5,38.7 85.0,43.2 89.5,50.5 94.0,60.2 98.5,71.5 103.0,83.8 107.5,96.3 112.0,108.2 116.4,119.0 120.9,128.3 125.4,135.9 129.9,141.7 134.4,146.0 138.9,149.1 143.4,151.5 147.9,153.8 152.4,156.6 156.9,160.3 161.4,165.5 165.9,172.2 170.4,180.5 174.9,190.3 179.4,201.1 183.9,212.4 188.4,223.5 192.9,233.7 197.4,242.1 201.9,248.3 206.4,251.6 210.9,251.8 215.4,248.7 219.9,242.4 224.4,233.4 228.9,222.1 233.3,209.2 237.8,195.5 242.3,181.8 246.8,168.7 251.3,156.9 255.8,146.8 260.3,138.7 264.8,132.5 269.3,128.0 273.8,124.9 278.3,122.7 282.8,120.8 287.3,118.6 291.8,115.6 296.3,111.5 300.8,105.9 305.3,98.8 309.8,90.4 314.3,81.2 318.8,71.5 323.3,62.1 327.8,53.8 332.3,47.1 336.8,42.8 341.3,41.2 345.8,42.9 350.2,47.7 354.7,55.6 359.2,66.2 363.7,78.9 368.2,93.1 372.7,108.0 377.2,122.7 381.7,136.6 386.2,149.1 390.7,159.6 395.2,168.0 399.7,174.3 404.2,178.6 408.7,181.4 413.2,183.0 417.7,184.2 422.2,185.4 426.7,187.3 431.2,190.3 435.7,194.5 440.2,200.0 444.7,206.8 449.2,214.4 453.7,222.3 458.2,229.8 462.7,236.4 467.1,241.2 471.6,243.8 476.1,243.6 480.6,240.3 485.1,233.8 489.6,224.5 494.1,212.5 498.6,198.6 503.1,183.3 507.6,167.6 512.1,152.1 516.6,137.7 521.1,125.0 525.6,114.3 530.1,106.0 534.6,100.1 539.1,96.2 543.6,94.2 548.1,93.4 552.6,93.3 557.1,93.2 561.6,92.7 566.1,91.2 570.6,88.6 575.1,84.7 579.6,79.7 584.0,73.9 588.5,67.8 593.0,62.1 597.5,57.3 602.0,54.2 606.5,53.4 611.0,55.2 615.5,60.0 620.0,67.8 624.5,78.5 629.0,91.5 633.5,106.4 638.0,122.4" fill="none" stroke="#f08c8c" stroke-width="2" opacity="0.9"/>
<polyline points="58.0,174.7 62.5,167.0 67.0,160.1 71.5,154.8 76.0,151.4 80.5,150.1 85.0,150.9 89.5,153.4 94.0,157.2 98.5,161.7 103.0,166.4 107.5,170.8 112.0,174.3 116.4,176.8 120.9,178.3 125.4,179.0 129.9,179.2 134.4,179.5 138.9,180.3 143.4,182.0 147.9,185.0 152.4,189.2 156.9,194.5 161.4,200.7 165.9,207.2 170.4,213.3 174.9,218.5 179.4,222.1 183.9,223.8 188.4,223.3 192.9,220.6 197.4,216.1 201.9,210.1 206.4,203.3 210.9,196.3 215.4,189.7 219.9,184.2 224.4,179.9 228.9,177.0 233.3,175.4 237.8,174.8 242.3,174.7 246.8,174.8 251.3,174.4 255.8,173.3 260.3,171.3 264.8,168.3 269.3,164.6 273.8,160.6 278.3,156.8 282.8,153.9 287.3,152.3 291.8,152.5 296.3,154.7 300.8,158.9 305.3,164.9 309.8,172.2 314.3,180.3 318.8,188.4 323.3,196.0 327.8,202.3 332.3,207.1 336.8,210.1 341.3,211.3 345.8,211.0 350.2,209.6 354.7,207.6 359.2,205.6 363.7,204.0 368.2,203.1 372.7,203.1 377.2,203.9 381.7,205.2 386.2,206.6 390.7,207.5 395.2,207.5 399.7,206.1 404.2,203.1 408.7,198.3 413.2,192.1 417.7,184.7 422.2,176.7 426.7,168.8 431.2,161.7 435.7,156.0 440.2,152.1 444.7,150.2 449.2,150.5 453.7,152.6 458.2,156.1 462.7,160.6 467.1,165.3 471.6,169.7 476.1,173.5 480.6,176.2 485.1,178.0 489.6,178.8 494.1,179.2 498.6,179.4 503.1,180.0 507.6,181.5 512.1,184.1 516.6,188.0 521.1,193.1 525.6,199.1 530.1,205.6 534.6,211.9 539.1,217.3 543.6,221.4 548.1,223.6 552.6,223.6 557.1,221.5 561.6,217.4 566.1,211.7 570.6,205.0 575.1,198.0 579.6,191.3 584.0,185.4 588.5,180.8 593.0,177.6 597.5,175.7 602.0,174.8 606.5,174.7 611.0,174.8 615.5,174.6 620.0,173.7 624.5,171.9 629.0,169.1 633.5,165.6 638.0,161.6" fill="none" stroke="#38e1d4" stroke-width="2.4"/>
<text x="638" y="141.3" text-anchor="end" font-family="ui-monospace,'JetBrains Mono',Consolas,monospace" font-size="10.5" fill="#38e1d4">专家带 P10–P90 (3.0–10.3 N)</text>
<text x="232" y="62" font-family="ui-monospace,'JetBrains Mono',Consolas,monospace" font-size="10.5" fill="#f08c8c">超压 → 力质量扣分</text>
<text x="58" y="274" font-family="ui-monospace,'JetBrains Mono',Consolas,monospace" font-size="10.5" fill="#5d6878">接触阶段 →</text>
<text x="14" y="140" font-family="ui-monospace,'JetBrains Mono',Consolas,monospace" font-size="10.5" fill="#5d6878" transform="rotate(-90 14 140)" text-anchor="middle">接触法向力 (N)</text>
<g font-family="ui-monospace,'JetBrains Mono',Consolas,monospace" font-size="11">
<rect x="462" y="278" width="14" height="3" y2="0" fill="#38e1d4"/><text x="480" y="282" fill="#8a98ac">会用力·多在带内</text>
<rect x="572" y="278" width="14" height="3" fill="#f08c8c"/><text x="590" y="282" fill="#8a98ac">不会用力</text>
</g>
</svg>