<svg viewBox="0 0 660 300" xmlns="http://www.w3.org/2000/svg" role="img" aria-label="桌高 ±3cm 偏移示意" style="width:100%;height:auto;background:#10141c;border-radius:6px"><rect x="40" y="34" width="420" height="232" rx="8" fill="#07090d" stroke="#1d2530" stroke-width="1.5"/><text x="50" y="52" font-family="ui-monospace,'JetBrains Mono',Consolas,monospace" font-size="10.5" fill="#5d6878">相机视角(腕部/外部)</text><line x1="64" y1="184" x2="436" y2="184" stroke="#8a98ac" stroke-width="2.5"/><text x="68" y="176" font-family="ui-monospace,'JetBrains Mono',Consolas,monospace" font-size="10" fill="#8a98ac">桌面(标称高度)</text><line x1="64" y1="154" x2="436" y2="154" stroke="#f0b35c" stroke-width="1.4" stroke-dasharray="5 4" opacity="0.85"/><text x="434" y="150" text-anchor="end" font-family="ui-monospace,'JetBrains Mono',Consolas,monospace" font-size="9.5" fill="#f0b35c">+3cm</text><line x1="64" y1="214" x2="436" y2="214" stroke="#f0b35c" stroke-width="1.4" stroke-dasharray="5 4" opacity="0.85"/><text x="434" y="226" text-anchor="end" font-family="ui-monospace,'JetBrains Mono',Consolas,monospace" font-size="9.5" fill="#f0b35c">−3cm</text><line x1="80" y1="154" x2="80" y2="214" stroke="#f0b35c" stroke-width="1.2"/><path d="M76 160 L80 154 L84 160" fill="none" stroke="#f0b35c" stroke-width="1.2"/><path d="M76 208 L80 214 L84 208" fill="none" stroke="#f0b35c" stroke-width="1.2"/><text x="90" y="188" font-family="ui-monospace,'JetBrains Mono',Consolas,monospace" font-size="10" fill="#f0b35c">±3cm 随机偏移</text><rect x="278" y="128" width="24" height="34" rx="3" fill="none" stroke="#38e1d4" stroke-width="2"/><line x1="283" y1="162" x2="283" y2="178" stroke="#38e1d4" stroke-width="2"/><line x1="297" y1="162" x2="297" y2="178" stroke="#38e1d4" stroke-width="2"/><text x="308" y="144" font-family="ui-monospace,'JetBrains Mono',Consolas,monospace" font-size="10" fill="#38e1d4">末端执行器</text><circle cx="140" cy="189" r="3.2" fill="#f0b35c" opacity="0.8"/><circle cx="172" cy="189" r="3.2" fill="#f0b35c" opacity="0.8"/><circle cx="198" cy="189" r="3.2" fill="#f0b35c" opacity="0.8"/><circle cx="386" cy="189" r="3.2" fill="#f0b35c" opacity="0.8"/><circle cx="414" cy="189" r="3.2" fill="#f0b35c" opacity="0.8"/><circle cx="446" cy="189" r="3.2" fill="#f0b35c" opacity="0.8"/><text x="434" y="212" text-anchor="end" font-family="ui-monospace,'JetBrains Mono',Consolas,monospace" font-size="9.5" fill="#5d6878">污渍(待擦)</text><text x="484" y="44" font-family="ui-monospace,'JetBrains Mono',Consolas,monospace" font-size="11.5" fill="#38e1d4">桌高每 episode 在 ±3cm</text><text x="484" y="68" font-family="ui-monospace,'JetBrains Mono',Consolas,monospace" font-size="11.5" fill="#38e1d4">内随机偏移</text><text x="484" y="116" font-family="ui-monospace,'JetBrains Mono',Consolas,monospace" font-size="11.5" fill="#8a98ac">相机几乎读不出高低</text><text x="484" y="188" font-family="ui-monospace,'JetBrains Mono',Consolas,monospace" font-size="11.5" fill="#f08c8c">纯视觉 → 戳桌 / 悬空</text><text x="484" y="212" font-family="ui-monospace,'JetBrains Mono',Consolas,monospace" font-size="11.5" fill="#38e1d4">会用力 → 靠接触稳擦</text></svg>